<svg xmlns="http://www.w3.org/2000/svg" viewBox="0 0 100 98.98"><polygon points="50 6.63 57.12 0 62.07 8.37 70.77 4.01 73.17 13.44 82.74 11.7 82.39 21.43 92.06 22.46 88.98 31.69 97.97 35.4 92.42 43.39 100 49.49 92.42 55.59 97.97 63.58 88.98 67.3 92.06 76.52 82.39 77.56 82.74 87.28 73.17 85.55 70.77 94.97 62.07 90.61 57.12 98.98 50 92.35 42.88 98.98 37.93 90.61 29.23 94.97 26.83 85.55 17.26 87.28 17.61 77.56 7.94 76.52 11.02 67.3 2.02 63.58 7.58 55.59 0 49.49 7.58 43.39 2.02 35.4 11.02 31.69 7.94 22.46 17.61 21.43 17.26 11.7 26.83 13.44 29.23 4.01 37.93 8.37 42.88 0 50 6.63"/></svg>